HIERARCHY
ROOT Hips
{
	OFFSET 0.000000 0.000000 0.000000
	CHANNELS 6 Xposition Yposition Zposition Zrotation Yrotation Xrotation 
	JOINT LHipJoint
	{
		OFFSET 0.000000 0.000000 0.000000
		CHANNELS 3 Zrotation Yrotation Xrotation
		JOINT LeftUpLeg
		{
			OFFSET 1.363060 -1.794630 0.839290
			CHANNELS 3 Zrotation Yrotation Xrotation
			JOINT LeftLeg
			{
				OFFSET 2.448110 -6.726130 0.000000
				CHANNELS 3 Zrotation Yrotation Xrotation
				JOINT LeftFoot
				{
					OFFSET 2.562200 -7.039590 0.000000
					CHANNELS 3 Zrotation Yrotation Xrotation
					JOINT LeftToeBase
					{
						OFFSET 0.157640 -0.433110 2.322550
						CHANNELS 3 Zrotation Yrotation Xrotation
						End Site
						{
							OFFSET 0.000000 0.000000 0.000000
						}
					}
				}
			}
		}
	}
	JOINT RHipJoint
	{
		OFFSET 0.000000 0.000000 0.000000
		CHANNELS 3 Zrotation Yrotation Xrotation
		JOINT RightUpLeg
		{
			OFFSET -1.305520 -1.794630 0.839290
			CHANNELS 3 Zrotation Yrotation Xrotation
			JOINT RightLeg
			{
				OFFSET -2.542530 -6.985550 0.000000
				CHANNELS 3 Zrotation Yrotation Xrotation
				JOINT RightFoot
				{
					OFFSET -2.568260 -7.056230 0.000000
					CHANNELS 3 Zrotation Yrotation Xrotation
					JOINT RightToeBase
					{
						OFFSET -0.164730 -0.452590 2.363150
						CHANNELS 3 Zrotation Yrotation Xrotation
						End Site
						{
							OFFSET 0.000000 0.000000 0.000000
						}
					}
				}
			}
		}
	}
}
MOTION
Frames: 28
Frame Time: 0.008333
-2.159718 16.736709 -0.137252 15.004014 79.471148 37.154601 -8.236342 -1.017880 -0.648702 -12.793077 -1.165018 -45.959548 -2.552188 0.773557 23.918436 0.367034 2.228181 2.296108 0.754700 -0.000000 -26.389700 12.207287 -1.478595 -3.620306 1.991725 -6.541820 -19.310097 0.352758 -4.024229 49.049671 0.245843 7.159723 6.314528 1.688300 0.000000 -78.727000
-2.040059 16.739536 -0.137577 15.744387 79.198896 37.682091 -8.143494 -0.986834 -0.803147 -13.147845 -1.219138 -45.625280 -2.527822 0.827289 25.111522 0.456612 2.592487 1.003354 0.733000 0.000000 -26.982100 12.379731 -1.351508 -3.686617 1.545607 -6.645409 -20.225822 0.065891 -4.187821 51.269985 0.055190 6.445505 8.615899 1.849400 0.000000 -77.805500
-1.923160 16.745209 -0.142399 16.145828 78.936992 37.846179 -8.079393 -0.969051 -0.952865 -13.387607 -1.294989 -45.156637 -2.496415 0.865749 26.114553 0.554203 2.989748 -0.253967 0.698700 -0.000000 -27.633600 12.505859 -1.213213 -3.766034 1.208103 -6.690815 -21.060496 -0.200321 -4.325339 53.374069 -0.158725 5.617419 10.991458 1.937100 -0.000000 -76.124700
-1.808265 16.753148 -0.151467 16.237713 78.688061 37.679248 -8.045511 -0.962447 -1.097468 -13.524873 -1.375927 -44.575173 -2.456652 0.892876 26.942615 0.657627 3.424868 -1.409814 0.657200 -0.000000 -28.257399 12.588203 -1.069312 -3.857148 0.977551 -6.696272 -21.815181 -0.437787 -4.438531 55.349948 -0.388772 4.673448 13.341821 1.921001 0.000000 -73.760600
-1.694647 16.762811 -0.164058 16.061740 78.453029 37.227890 -8.040404 -0.963319 -1.234427 -13.576831 -1.448695 -43.906983 -2.408274 0.912077 27.614996 0.764168 3.897794 -2.418662 0.614000 -0.000000 -28.780300 12.632169 -0.925751 -3.955960 0.847690 -6.678417 -22.497323 -0.642502 -4.530540 57.188902 -0.627003 3.605062 15.559945 1.774500 0.000000 -70.925300
-1.581656 16.773795 -0.179140 15.674598 78.231160 36.556365 -8.059652 -0.967183 -1.360582 -13.564939 -1.504750 -43.180018 -2.352375 0.925915 28.152544 0.871216 4.404322 -3.257735 0.574000 0.000000 -29.156400 12.645600 -0.787545 -4.057672 0.806666 -6.652044 -23.122059 -0.814794 -4.606016 58.890058 -0.865034 2.406224 17.531264 1.480000 0.000000 -67.786100
-1.468728 16.785852 -0.195667 15.118100 78.020734 35.718793 -8.098436 -0.971003 -1.473645 -13.506772 -1.536359 -42.426792 -2.291032 0.936509 28.578737 0.976141 4.932448 -3.927919 0.540100 0.000000 -29.369400 12.635262 -0.658500 -4.157232 0.845467 -6.623381 -23.708958 -0.958775 -4.669237 60.453562 -1.096390 1.071429 19.158790 1.032700 -0.000000 -64.642100
-1.355544 16.798857 -0.212479 14.442013 77.819125 34.776780 -8.150833 -0.971951 -1.571297 -13.420239 -1.539152 -41.676334 -2.227441 0.944900 28.914675 1.076626 5.465703 -4.448937 0.513200 0.000000 -29.432700 12.608381 -0.541339 -4.249105 0.952318 -6.595185 -24.280457 -1.080736 -4.724562 61.885804 -1.315771 -0.390934 20.354887 0.445899 -0.000000 -61.669700
-1.241945 16.812753 -0.228415 13.694020 77.623548 33.787228 -8.211338 -0.967666 -1.651386 -13.321475 -1.510064 -40.951976 -2.165345 0.951293 29.178549 1.170692 5.984591 -4.854358 0.492100 -0.000000 -29.379900 12.571236 -0.438093 -4.327348 1.114936 -6.566476 -24.857279 -1.187446 -4.775562 63.194671 -1.519509 -1.957006 21.052636 -0.247200 0.000000 -58.981900
-1.127976 16.827640 -0.242566 12.906340 77.430458 32.793089 -8.275076 -0.957817 -1.714375 -13.221548 -1.446607 -40.274356 -2.108447 0.955605 29.385985 1.256712 6.468935 -5.184597 0.473200 0.000000 -29.256300 12.528174 -0.349036 -4.388286 1.324408 -6.531772 -25.459500 -1.284536 -4.824919 64.387169 -1.705116 -3.586067 21.210441 -0.995900 0.000000 -56.607400
-1.013839 16.843587 -0.254210 12.109995 77.236924 31.830295 -8.338473 -0.941894 -1.760741 -13.129432 -1.346894 -39.653957 -2.060079 0.957310 29.547451 1.333413 6.900705 -5.479429 0.452100 0.000000 -29.108400 12.482345 -0.274224 -4.428232 1.571170 -6.484894 -26.099764 -1.375426 -4.874083 65.466535 -1.870768 -5.222308 20.814163 -1.736500 -0.000000 -54.499200
-0.899854 16.860701 -0.262952 11.322164 77.039196 30.919365 -8.398990 -0.920510 -1.793078 -13.050265 -1.209132 -39.095409 -2.022709 0.955960 29.669725 1.399988 7.266467 -5.771980 0.424600 -0.000000 -28.979299 12.435286 -0.212598 -4.445574 1.847678 -6.418144 -26.784848 -1.460687 -4.923369 66.430463 -2.015107 -6.801770 19.881480 -2.402400 0.000000 -52.563700
-0.786415 16.879060 -0.268632 10.552044 76.834080 30.068470 -8.455432 -0.894497 -1.814941 -12.986143 -1.030909 -38.595562 -1.997745 0.951251 29.755381 1.455957 7.558080 -6.083470 0.387600 0.000001 -28.902700 12.387324 -0.162758 -4.439859 2.147388 -6.324391 -27.513259 -1.538158 -4.971926 67.271184 -2.137036 -8.259794 18.462141 -2.935200 0.000000 -50.686300
-0.673874 16.898728 -0.271422 9.802367 76.618074 29.276035 -8.507633 -0.864649 -1.830539 -12.937102 -0.809989 -38.144804 -1.985512 0.943057 29.802418 1.501285 7.773992 -6.421097 0.340400 0.000000 -28.902600 12.337912 -0.122834 -4.412080 2.463822 -6.198967 -28.275972 -1.603521 -5.017959 67.975970 -2.235616 -9.538835 16.633474 -3.293300 -0.000000 -48.732601
-0.562689 16.919627 -0.271663 9.063811 76.389210 28.526243 -8.556565 -0.832535 -1.845463 -12.899301 -0.542341 -37.731399 -1.985153 0.931907 29.810440 1.535947 7.916039 -6.780268 0.284400 0.000001 -28.986499 12.285491 -0.090604 -4.364818 2.793859 -6.038524 -29.058023 -1.651321 -5.058865 68.528565 -2.311232 -10.601513 14.503610 -3.463000 -0.000000 -46.686700
-0.453109 16.941736 -0.269850 8.335621 76.145623 27.808244 -8.603513 -0.798441 -1.863882 -12.870020 -0.226857 -37.336703 -1.994992 0.918139 29.772600 1.560445 7.993447 -7.142185 0.223800 0.000000 -29.157499 12.228889 -0.063810 -4.301581 3.130583 -5.847200 -29.839927 -1.676326 -5.092072 68.912605 -2.363743 -11.421503 12.186332 -3.451800 0.000001 -44.441200
-0.345380 16.964943 -0.266519 7.610530 75.887174 27.104484 -8.650269 -0.763097 -1.890246 -12.844503 0.138093 -36.943953 -2.012681 0.902634 29.685895 1.575180 8.016451 -7.483038 0.163801 -0.000000 -29.403200 12.166619 -0.040226 -4.227073 3.470273 -5.632058 -30.600424 -1.674564 -5.115000 69.112265 -2.394485 -11.996736 9.805760 -3.291400 -0.000001 -42.035600
-0.239597 16.989164 -0.262215 6.888766 75.615142 26.404851 -8.698231 -0.726819 -1.927817 -12.818727 0.550976 -36.536636 -2.035641 0.886220 29.546980 1.580774 7.997601 -7.776399 0.109900 -0.000000 -29.701900 12.097842 -0.017700 -4.146766 3.808352 -5.405229 -31.318797 -1.644072 -5.125634 69.114036 -2.405132 -12.339721 7.477385 -3.025600 0.000000 -39.541999
-0.135812 17.014203 -0.257355 6.168831 75.332632 25.698334 -8.749120 -0.689709 -1.978027 -12.787825 1.009246 -36.103975 -2.061191 0.870025 29.357817 1.577714 7.947582 -7.998730 0.066700 0.000000 -30.032500 12.021777 0.005055 -4.065318 4.143383 -5.180042 -31.978123 -1.585245 -5.122475 68.909987 -2.398206 -12.478090 5.298118 -2.702400 0.000000 -37.085900
-0.033974 17.039919 -0.252263 5.458337 75.044358 24.984409 -8.803717 -0.651607 -2.041323 -12.748286 1.506128 -35.635303 -2.086951 0.854873 29.121000 1.566763 7.876933 -8.132568 0.037600 0.000000 -30.376900 11.938667 0.028952 -3.988107 4.472972 -4.973337 -32.563141 -1.500059 -5.105065 68.495858 -2.376157 -12.444320 3.336138 -2.363300 -0.000001 -34.783400
0.066168 17.066223 -0.247010 4.773086 74.755338 24.274645 -8.861416 -0.612059 -2.116132 -12.700054 2.029135 -35.124723 -2.111219 0.840985 28.838796 1.549138 7.795498 -8.169544 0.023900 0.000001 -30.702300 11.849737 0.054805 -3.919207 4.792689 -4.800807 -33.065951 -1.391584 -5.073758 67.872767 -2.341426 -12.272261 1.629228 -2.038800 0.000000 -32.748700
0.164781 17.093025 -0.241553 4.126001 74.471858 23.579595 -8.921672 -0.570806 -2.199756 -12.641869 2.565152 -34.571802 -2.132729 0.828649 28.518775 1.525955 7.708894 -8.111471 0.025299 0.000000 -31.000200 11.756113 0.082652 -3.861363 5.101042 -4.674925 -33.483483 -1.263144 -5.029388 67.047465 -2.296790 -11.996813 0.181842 -1.747300 0.000000 -31.042600
0.262121 17.120179 -0.235769 3.526583 74.199550 22.910177 -8.983381 -0.527869 -2.289028 -12.573110 3.099384 -33.979103 -2.150859 0.817778 28.168176 1.498523 7.620700 -7.969185 0.039600 0.000000 -31.270800 11.658903 0.112494 -3.816441 5.397444 -4.603931 -33.817175 -1.117615 -4.973039 66.029743 -2.245082 -11.649550 -1.027651 -1.495601 -0.000000 -29.679700
0.358407 17.147634 -0.229365 2.988813 73.943000 22.282687 -9.044904 -0.483064 -2.379841 -12.495370 3.616254 -33.351350 -2.165527 0.807853 27.795041 1.468256 7.532941 -7.760692 0.063600 0.000000 -31.520300 11.559568 0.144054 -3.784035 5.679626 -4.591699 -34.073313 -0.957329 -4.905978 64.832705 -2.189242 -11.258042 -2.038205 -1.282900 0.000001 -28.636100
0.453839 17.175258 -0.222060 2.519409 73.705729 21.708200 -9.104725 -0.436645 -2.468572 -12.410055 4.102358 -32.695627 -2.177011 0.798282 27.407300 1.436439 7.445969 -7.507588 0.093800 0.000000 -31.766500 11.459000 0.177063 -3.762573 5.946914 -4.635981 -34.260408 -0.784032 -4.829121 63.470123 -2.132288 -10.846012 -2.896246 -1.103900 -0.000001 -27.862999
0.548641 17.202993 -0.213593 2.116848 73.487697 21.191686 -9.161526 -0.389187 -2.552492 -12.318009 4.547790 -32.019986 -2.185825 0.788482 27.011866 1.404228 7.359554 -7.232300 0.126600 -0.000000 -32.031800 11.357560 0.211511 -3.749628 6.200365 -4.729283 -34.389010 -0.599104 -4.742897 61.955396 -2.077201 -10.433370 -3.646329 -0.952101 0.000000 -27.301000
0.642911 17.230704 -0.203749 1.777796 73.287181 20.735356 -9.214305 -0.341377 -2.629771 -12.220335 4.947587 -31.333158 -2.192572 0.777978 26.615269 1.372486 7.273130 -6.954303 0.158900 -0.000000 -32.339800 11.255370 0.247207 -3.741529 6.441501 -4.859628 -34.469526 -0.403945 -4.647273 60.301264 -2.026786 -10.036500 -4.324966 -0.821700 -0.000000 -26.888801
0.736770 17.258226 -0.192369 1.492400 73.099891 20.334581 -9.262655 -0.293861 -2.699613 -12.118150 5.302556 -30.643462 -2.197820 0.766453 26.223013 1.341745 7.185917 -6.688287 0.188700 0.000000 -32.712500 11.152215 0.283734 -3.733827 6.672640 -5.012290 -34.511709 -0.200205 -4.541737 58.519107 -1.983547 -9.668742 -4.955470 -0.708600 -0.000000 -26.571700
